<svg width="45" height="46" viewBox="0 0 45 46" fill="none" xmlns="http://www.w3.org/2000/svg">
<rect y="0.701416" width="45" height="45" rx="10" fill="#3366FF" fill-opacity="0.2"/>
<path d="M22.8003 22.6014C20.5303 22.0114 19.8003 21.4014 19.8003 20.4514C19.8003 19.3614 20.8103 18.6014 22.5003 18.6014C24.2803 18.6014 24.9403 19.4514 25.0003 20.7014H27.2103C27.1403 18.9814 26.0903 17.4014 24.0003 16.8914V14.7014H21.0003V16.8614C19.0603 17.2814 17.5003 18.5414 17.5003 20.4714C17.5003 22.7814 19.4103 23.9314 22.2003 24.6014C24.7003 25.2014 25.2003 26.0814 25.2003 27.0114C25.2003 27.7014 24.7103 28.8014 22.5003 28.8014C20.4403 28.8014 19.6303 27.8814 19.5203 26.7014H17.3203C17.4403 28.8914 19.0803 30.1214 21.0003 30.5314V32.7014H24.0003V30.5514C25.9503 30.1814 27.5003 29.0514 27.5003 27.0014C27.5003 24.1614 25.0703 23.1914 22.8003 22.6014Z" fill="#3366FF"/>
</svg>
