<svg width="36" height="36" viewBox="0 0 36 36" fill="none" xmlns="http://www.w3.org/2000/svg">
<path d="M31.2602 6.91505C30.494 6.14856 29.5844 5.54052 28.5832 5.12568C27.582 4.71084 26.5089 4.49731 25.4252 4.49731C24.3414 4.49731 23.2683 4.71084 22.2671 5.12568C21.266 5.54052 20.3563 6.14856 19.5902 6.91505L18.0002 8.50505L16.4102 6.91505C14.8626 5.36751 12.7637 4.49812 10.5752 4.49812C8.38663 4.49812 6.28772 5.36751 4.74018 6.91505C3.19264 8.46259 2.32324 10.5615 2.32324 12.7501C2.32324 14.9386 3.19264 17.0375 4.74018 18.5851L6.33018 20.1751L18.0002 31.8451L29.6702 20.1751L31.2602 18.5851C32.0267 17.8189 32.6347 16.9093 33.0495 15.9081C33.4644 14.9069 33.6779 13.8338 33.6779 12.7501C33.6779 11.6663 33.4644 10.5932 33.0495 9.59202C32.6347 8.59083 32.0267 7.68119 31.2602 6.91505Z" stroke="#C1C5D0" stroke-width="2" stroke-linecap="round" stroke-linejoin="round"/>
</svg>
