<svg width="45" height="46" viewBox="0 0 45 46" fill="none" xmlns="http://www.w3.org/2000/svg">
<rect y="0.701416" width="45" height="45" rx="10" fill="#FC1055" fill-opacity="0.2"/>
<path d="M13 19.7014V23.7024H14V29.7014H13V32.7014H29L32 32.7024V32.7014H33V29.7014H32V23.7024H33V19.7014L23 13.7014L13 19.7014ZM17 29.7014V23.7024H19V29.7014H17ZM22 29.7014V23.7024H24V29.7014H22ZM29 29.7014H27V23.7024H29V29.7014ZM25 19.7014C24.9999 19.9641 24.9481 20.2242 24.8475 20.4669C24.7469 20.7096 24.5995 20.9301 24.4137 21.1158C24.2279 21.3016 24.0073 21.4489 23.7646 21.5493C23.5219 21.6498 23.2617 21.7015 22.999 21.7014C22.7363 21.7014 22.4762 21.6495 22.2335 21.5489C21.9908 21.4484 21.7703 21.3009 21.5846 21.1151C21.3989 20.9293 21.2516 20.7087 21.1511 20.466C21.0506 20.2233 20.9989 19.9631 20.999 19.7004C20.9991 19.1699 21.21 18.6611 21.5853 18.286C21.9605 17.9109 22.4694 17.7003 23 17.7004C23.5306 17.7005 24.0393 17.9114 24.4144 18.2867C24.7895 18.662 25.0001 19.1709 25 19.7014Z" fill="#FC1055"/>
</svg>
