<svg width="68" height="70" viewBox="0 0 68 70" fill="none" xmlns="http://www.w3.org/2000/svg">
<g filter="url(#filter0_f_355_312)">
<path fill-rule="evenodd" clip-rule="evenodd" d="M33.8238 38.3288L30.5368 35.988C29.1751 35.0208 28.8695 33.1468 29.8475 31.8034C30.8254 30.4567 32.7202 30.1511 34.0785 31.1216L37.3655 33.4625C38.7271 34.4297 39.0361 36.3037 38.0548 37.6471C37.0768 38.9904 35.1821 39.296 33.8238 38.3288ZM46.224 39.7698L47.8675 40.9419L56.9916 28.4082C57.8609 27.2127 57.5892 25.5435 56.377 24.6838L52.5535 21.9567C51.657 21.322 50.4176 21.2044 49.5245 21.8425C47.7248 23.1288 45.2256 23.1993 43.3275 21.8459C41.4293 20.4924 40.7026 18.1248 41.3648 16.0325C41.6941 14.9913 41.1882 13.8663 40.2951 13.2282L36.4682 10.5045C35.2594 9.64138 33.5717 9.91341 32.699 11.109L23.5783 23.6426L25.2218 24.8147C26.5801 25.782 26.8891 27.656 25.9111 28.9993C24.9332 30.3427 23.0384 30.6483 21.6767 29.6811L20.0332 28.509L10.5084 41.5901C9.63912 42.789 9.91077 44.4548 11.123 45.3179L14.9465 48.0416C15.843 48.6797 17.0824 48.7972 17.9755 48.1591C19.7752 46.8729 22.2744 46.8023 24.1725 48.1558C26.0707 49.5092 26.7974 51.8735 26.1352 53.9692C25.8059 55.007 26.3118 56.1354 27.2049 56.7735L31.0318 59.4972C32.2406 60.3569 33.9283 60.0882 34.801 58.8893L44.3224 45.8082L42.6789 44.6361C41.3206 43.6689 41.0116 41.7949 41.9896 40.4516C42.9675 39.1082 44.8623 38.8026 46.224 39.7698Z" fill="#3366FF"/>
</g>
<defs>
<filter id="filter0_f_355_312" x="0" y="0" width="67.5" height="70" filterUnits="userSpaceOnUse" color-interpolation-filters="sRGB">
<feFlood flood-opacity="0" result="BackgroundImageFix"/>
<feBlend mode="normal" in="SourceGraphic" in2="BackgroundImageFix" result="shape"/>
<feGaussianBlur stdDeviation="5" result="effect1_foregroundBlur_355_312"/>
</filter>
</defs>
</svg>
