<svg width="45" height="46" viewBox="0 0 45 46" fill="none" xmlns="http://www.w3.org/2000/svg">
<rect y="0.701416" width="45" height="45" rx="10" fill="#FF8900" fill-opacity="0.2"/>
<g clip-path="url(#clip0_457_75)">
<path d="M32.44 19.3813C32.44 19.4213 32.45 19.4513 32.47 19.4713C32.49 19.4913 32.49 19.5213 32.47 19.5613V20.1613C32.47 20.3613 32.4 20.5313 32.26 20.6713C32.12 20.8113 31.95 20.8813 31.75 20.8813H30.37V30.6013C30.37 30.8013 30.31 30.9613 30.19 31.0813C30.07 31.2013 29.9 31.2713 29.68 31.2913H15.79C15.59 31.2913 15.42 31.2213 15.28 31.0813C15.14 30.9413 15.07 30.7813 15.07 30.6013V20.8813H13.69C13.49 20.8813 13.33 20.8113 13.21 20.6713C13.09 20.5313 13.02 20.3613 13 20.1613V19.5613C13 19.4813 13.01 19.4213 13.03 19.3813L14.8 12.8713C14.9 12.5513 15.07 12.3013 15.31 12.1213C15.55 11.9413 15.83 11.8513 16.15 11.8513H29.32C29.64 11.8513 29.92 11.9413 30.16 12.1213C30.4 12.3013 30.56 12.5513 30.64 12.8713L32.44 19.3813ZM28.3 20.8813H17.17V24.6913C17.17 24.7913 17.21 24.8713 17.29 24.9313C17.37 24.9913 17.45 25.0313 17.53 25.0513H27.94C28.04 25.0513 28.13 25.0113 28.21 24.9313C28.29 24.8513 28.32 24.7713 28.3 24.6913V20.8813Z" fill="#FF8900"/>
</g>
<defs>
<clipPath id="clip0_457_75">
<rect width="19.5" height="24" fill="white" transform="translate(13 11.7014)"/>
</clipPath>
</defs>
</svg>
