<svg width="24" height="24" viewBox="0 0 24 24" fill="none" xmlns="http://www.w3.org/2000/svg">
<path d="M12.043 6.92506C10.7228 6.92639 9.45703 7.45135 8.52341 8.38478C7.5898 9.31821 7.06458 10.5839 7.06299 11.9041C7.06199 12.8441 7.32599 13.7601 7.82399 14.5531L7.94199 14.7411L7.43899 16.5781L9.32399 16.0841L9.50499 16.1921C10.2725 16.6463 11.1481 16.8857 12.04 16.8851H12.041C13.3608 16.8832 14.626 16.3582 15.5593 15.4251C16.4926 14.4919 17.0179 13.2268 17.02 11.9071C17.0223 11.2529 16.8948 10.6048 16.6448 10.0002C16.3949 9.39564 16.0275 8.84666 15.564 8.38506C15.1028 7.92091 14.5542 7.55287 13.9498 7.30225C13.3454 7.05164 12.6973 6.92343 12.043 6.92506ZM14.971 14.0431C14.846 14.3931 14.248 14.7111 13.961 14.7541C13.6464 14.8083 13.3234 14.7881 13.018 14.6951C12.7282 14.6053 12.4435 14.5002 12.165 14.3801C10.663 13.7321 9.68299 12.2211 9.60699 12.1201C9.53299 12.0201 8.99699 11.3081 8.99699 10.5721C8.99699 9.83506 9.38299 9.47306 9.51999 9.32306C9.57029 9.26623 9.63178 9.22037 9.7006 9.18837C9.76943 9.15637 9.84411 9.1389 9.91999 9.13706C10.02 9.13706 10.119 9.13806 10.207 9.14206C10.299 9.14606 10.422 9.10706 10.543 9.39906C10.668 9.69906 10.968 10.4351 11.005 10.5101C11.042 10.5841 11.067 10.6721 11.018 10.7721C10.968 10.8731 10.944 10.9341 10.868 11.0221C10.794 11.1101 10.711 11.2171 10.644 11.2851C10.569 11.3591 10.491 11.4401 10.578 11.5901C10.666 11.7391 10.966 12.2301 11.41 12.6271C11.982 13.1371 12.465 13.2941 12.614 13.3701C12.764 13.4441 12.851 13.4331 12.939 13.3321C13.026 13.2311 13.313 12.8951 13.413 12.7461C13.513 12.5961 13.612 12.6211 13.75 12.6701C13.887 12.7211 14.623 13.0821 14.772 13.1571C14.92 13.2311 15.021 13.2691 15.059 13.3321C15.095 13.3941 15.095 13.6931 14.971 14.0431Z" fill="#C1C5D0"/>
<path d="M20 3H4C3.73478 3 3.48043 3.10536 3.29289 3.29289C3.10536 3.48043 3 3.73478 3 4V20C3 20.2652 3.10536 20.5196 3.29289 20.7071C3.48043 20.8946 3.73478 21 4 21H20C20.2652 21 20.5196 20.8946 20.7071 20.7071C20.8946 20.5196 21 20.2652 21 20V4C21 3.73478 20.8946 3.48043 20.7071 3.29289C20.5196 3.10536 20.2652 3 20 3ZM12.04 17.896H12.038C11.0381 17.8961 10.054 17.6455 9.176 17.167L6 18L6.85 14.896C6.32498 13.9852 6.04886 12.9523 6.04938 11.9011C6.04989 10.8498 6.32702 9.81718 6.85294 8.90691C7.37885 7.99665 8.13502 7.2408 9.04551 6.71528C9.95599 6.18976 10.9887 5.91307 12.04 5.913C12.8275 5.91082 13.6077 6.06501 14.3352 6.36661C15.0626 6.66822 15.723 7.11124 16.278 7.67C16.8356 8.22535 17.2774 8.8858 17.578 9.61308C17.8785 10.3404 18.0318 11.1201 18.029 11.907C18.0266 13.4946 17.3949 15.0166 16.2722 16.1392C15.1496 17.2619 13.6277 17.8936 12.04 17.896Z" fill="#C1C5D0"/>
</svg>
