<svg width="24" height="24" viewBox="0 0 24 24" fill="none" xmlns="http://www.w3.org/2000/svg">
<path d="M8 2H16C17.5913 2 19.1174 2.63214 20.2426 3.75736C21.3679 4.88258 22 6.4087 22 8V16C22 17.5913 21.3679 19.1174 20.2426 20.2426C19.1174 21.3679 17.5913 22 16 22H8C6.4087 22 4.88258 21.3679 3.75736 20.2426C2.63214 19.1174 2 17.5913 2 16V8C2 6.4087 2.63214 4.88258 3.75736 3.75736C4.88258 2.63214 6.4087 2 8 2ZM14 11C13.7348 11 13.4804 11.1054 13.2929 11.2929C13.1054 11.4804 13 11.7348 13 12C13 12.2652 13.1054 12.5196 13.2929 12.7071C13.4804 12.8946 13.7348 13 14 13H17C17.2652 13 17.5196 12.8946 17.7071 12.7071C17.8946 12.5196 18 12.2652 18 12C18 11.7348 17.8946 11.4804 17.7071 11.2929C17.5196 11.1054 17.2652 11 17 11H14ZM12 15C11.7348 15 11.4804 15.1054 11.2929 15.2929C11.1054 15.4804 11 15.7348 11 16C11 16.2652 11.1054 16.5196 11.2929 16.7071C11.4804 16.8946 11.7348 17 12 17H17C17.2652 17 17.5196 16.8946 17.7071 16.7071C17.8946 16.5196 18 16.2652 18 16C18 15.7348 17.8946 15.4804 17.7071 15.2929C17.5196 15.1054 17.2652 15 17 15H12ZM12 7C11.7348 7 11.4804 7.10536 11.2929 7.29289C11.1054 7.48043 11 7.73478 11 8C11 8.26522 11.1054 8.51957 11.2929 8.70711C11.4804 8.89464 11.7348 9 12 9H17C17.2652 9 17.5196 8.89464 17.7071 8.70711C17.8946 8.51957 18 8.26522 18 8C18 7.73478 17.8946 7.48043 17.7071 7.29289C17.5196 7.10536 17.2652 7 17 7H12ZM7.828 12.243L7.121 11.536C7.02875 11.4405 6.91841 11.3643 6.7964 11.3119C6.6744 11.2595 6.54318 11.2319 6.4104 11.2307C6.27762 11.2296 6.14594 11.2549 6.02305 11.3052C5.90015 11.3555 5.7885 11.4297 5.6946 11.5236C5.60071 11.6175 5.52646 11.7291 5.47618 11.852C5.4259 11.9749 5.4006 12.1066 5.40175 12.2394C5.4029 12.3722 5.43049 12.5034 5.4829 12.6254C5.53531 12.7474 5.61149 12.8578 5.707 12.95L7.121 14.364C7.21387 14.457 7.32416 14.5307 7.44556 14.5811C7.56696 14.6314 7.69708 14.6573 7.8285 14.6573C7.95992 14.6573 8.09004 14.6314 8.21144 14.5811C8.33284 14.5307 8.44313 14.457 8.536 14.364L11.364 11.536C11.457 11.4432 11.5308 11.3329 11.5811 11.2115C11.6315 11.0902 11.6575 10.9601 11.6576 10.8287C11.6576 10.6973 11.6319 10.5672 11.5817 10.4458C11.5315 10.3243 11.4578 10.214 11.365 10.121C11.2722 10.028 11.1619 9.95425 11.0405 9.90388C10.9192 9.85351 10.7891 9.82754 10.6577 9.82744C10.5263 9.82735 10.3962 9.85314 10.2748 9.90334C10.1533 9.95353 10.043 10.0272 9.95 10.12L7.828 12.242V12.243Z" fill="#C1C5D0"/>
</svg>
