<svg width="24" height="24" viewBox="0 0 24 24" fill="none" xmlns="http://www.w3.org/2000/svg">
<path d="M12 1.5C9.9233 1.5 7.89323 2.11581 6.16652 3.26957C4.4398 4.42332 3.09399 6.0632 2.29927 7.98182C1.50455 9.90045 1.29661 12.0116 1.70176 14.0484C2.1069 16.0852 3.10693 17.9562 4.57538 19.4246C6.04383 20.8931 7.91476 21.8931 9.95156 22.2982C11.9884 22.7034 14.0996 22.4955 16.0182 21.7007C17.9368 20.906 19.5767 19.5602 20.7304 17.8335C21.8842 16.1068 22.5 14.0767 22.5 12C22.5 9.21523 21.3938 6.54451 19.4246 4.57538C17.4555 2.60625 14.7848 1.5 12 1.5ZM12 5.25C12.6675 5.25 13.32 5.44794 13.8751 5.81879C14.4301 6.18964 14.8627 6.71674 15.1181 7.33344C15.3735 7.95014 15.4404 8.62874 15.3102 9.28343C15.1799 9.93812 14.8585 10.5395 14.3865 11.0115C13.9145 11.4835 13.3131 11.8049 12.6584 11.9352C12.0037 12.0654 11.3251 11.9985 10.7084 11.7431C10.0917 11.4876 9.56464 11.0551 9.1938 10.5C8.82295 9.94503 8.625 9.29251 8.625 8.625C8.62402 8.18151 8.71064 7.7422 8.8799 7.33227C9.04916 6.92235 9.29772 6.5499 9.61131 6.23631C9.92491 5.92272 10.2974 5.67415 10.7073 5.50489C11.1172 5.33563 11.5565 5.24901 12 5.25ZM18 18.69C16.3553 20.1767 14.2171 20.9999 12 20.9999C9.78289 20.9999 7.64474 20.1767 6 18.69V18.255C5.9716 17.2281 6.34952 16.2315 7.05166 15.4816C7.7538 14.7317 8.72346 14.2891 9.75 14.25H14.25C15.2719 14.291 16.237 14.731 16.9381 15.4756C17.6392 16.2202 18.0205 17.21 18 18.2325V18.69Z" fill="#C1C5D0"/>
</svg>
